<svg
      width="499.67999267578125"
      height="298.8796451667099"
      viewBox="0 0 200.32403410384904 119.8222404517423"
      class="looka-1j8o68f"
    >
      <defs id="SvgjsDefs1626">
        <linearGradient id="SvgjsLinearGradient1632">
          <stop id="SvgjsStop1633" stop-color="#00ff8f" offset="0"></stop>
          <stop id="SvgjsStop1634" stop-color="#00a1ff" offset="1"></stop>
        </linearGradient>
        <linearGradient id="SvgjsLinearGradient1635">
          <stop id="SvgjsStop1636" stop-color="#00ff8f" offset="0"></stop>
          <stop id="SvgjsStop1637" stop-color="#00a1ff" offset="1"></stop>
        </linearGradient>
        <linearGradient id="SvgjsLinearGradient1638">
          <stop id="SvgjsStop1639" stop-color="#00ff8f" offset="0"></stop>
          <stop id="SvgjsStop1640" stop-color="#00a1ff" offset="1"></stop>
        </linearGradient>
        <linearGradient id="SvgjsLinearGradient1641">
          <stop id="SvgjsStop1642" stop-color="#00ff8f" offset="0"></stop>
          <stop id="SvgjsStop1643" stop-color="#00a1ff" offset="1"></stop>
        </linearGradient>
      </defs>
      <g
        id="SvgjsG1627"
        featurekey="YvLwfh"
        transform="matrix(0.4,0,0,0.4,80,53)"
        fill="url(#SvgjsLinearGradient1635)"
      >
        <path
          xmlns="http://www.w3.org/2000/svg"
          fill="url(#SvgjsLinearGradient1632)"
          d="M50,10c22.1,0,40,17.9,40,40S72.1,90,50,90S10,72.1,10,50S27.9,10,50,10 M50,0C22.4,0,0,22.4,0,50  s22.4,50,50,50s50-22.4,50-50S77.6,0,50,0L50,0z"
        ></path>
        <polygon
          xmlns="http://www.w3.org/2000/svg"
          fill="url(#SvgjsLinearGradient1632)"
          points="38.7,27.2 73.6,49.8 38.7,72.4 "
        ></polygon>
      </g>
      <g
        id="SvgjsG1628"
        featurekey="JZW510-0"
        transform="matrix(0.9953550049144287,0,0,0.9953550049144287,100.29036250280693,100.47468300359492)"
        fill="url(#SvgjsLinearGradient1638)"
      >
        <defs>
          <path d="M-65,0 A65,65,0,1,1,65,0" fill="none" id="d0_0"></path>
          <style>
            @font-face {
              font-family: "Bourton Inline";
              src: url("https://assets-service.s3.ca-central-1.amazonaws.com/621_font.otf");
            }
          </style>
        </defs>
        <text
          x="0"
          y="0"
          dy="0"
          font-size="2.3em"
          style="fill: var(--text-color)"
          font-family="Bourton Inline"
          text-anchor="middle"
        >
          <textPath
            xlink:href="#d0_0"
            textLength="204.2323760986328"
            startOffset="102.1"
          >
            <tspan dy="0">Vietsubmoi</tspan>
          </textPath>
        </text>
      </g>
      <g
        id="SvgjsG1629"
        featurekey="zdvuGz-0"
        transform="matrix(0.45444668008397104,0,0,0.45444668008397104,19.409219337560543,109.31876519425634)"
        fill="url(#SvgjsLinearGradient1641)"
      >
        <path
          d="M8.54 18.42 c0.2 0 0.3 0.1 0.3 0.3 l0 0.98 c0 0.2 -0.1 0.3 -0.3 0.3 l-6.94 0 c-0.2 0 -0.3 -0.1 -0.3 -0.3 l0 -13.4 c0 -0.2 0.1 -0.3 0.3 -0.3 l1.14 0 c0.2 0 0.3 0.1 0.3 0.3 l0 12.12 l5.5 0 z M17.846500000000002 6.300000000000001 c0 -0.2 0.1 -0.3 0.3 -0.3 l1.16 0 c0.2 0 0.3 0.1 0.3 0.3 l0 13.4 c0 0.2 -0.1 0.3 -0.3 0.3 l-1.16 0 c-0.2 0 -0.3 -0.1 -0.3 -0.3 l0 -13.4 z M38.153000000000006 12.54 c0.22 0 0.34 0.14 0.34 0.34 l0 3.06 c0 2.66 -1.38 4.16 -4.02 4.16 l-1.54 0 c-2.64 0 -4.02 -1.5 -4.02 -4.16 l0 -5.88 c0 -2.66 1.38 -4.16 4.02 -4.16 l1.54 0 c2.52 0 3.9 1.36 4.02 3.88 c0 0.22 -0.12 0.34 -0.34 0.34 l-1.04 0 c-0.22 0 -0.36 -0.12 -0.36 -0.34 c-0.08 -1.64 -0.78 -2.3 -2.28 -2.3 l-1.54 0 c-1.62 0 -2.28 0.74 -2.28 2.58 l0 5.88 c0 1.84 0.66 2.58 2.28 2.58 l1.54 0 c1.62 0 2.28 -0.74 2.28 -2.58 l0 -1.9 l-1.84 0 c-0.22 0 -0.34 -0.14 -0.34 -0.34 l0 -0.82 c0 -0.2 0.12 -0.34 0.34 -0.34 l3.24 0 z M56.4795 6 c0.2 0 0.3 0.1 0.3 0.3 l0 13.4 c0 0.2 -0.1 0.3 -0.3 0.3 l-1.14 0 c-0.2 0 -0.3 -0.1 -0.3 -0.3 l0 -5.78 l-5.5 0 l0 5.78 c0 0.2 -0.1 0.3 -0.3 0.3 l-1.14 0 c-0.2 0 -0.3 -0.1 -0.3 -0.3 l0 -13.4 c0 -0.2 0.1 -0.3 0.3 -0.3 l1.14 0 c0.2 0 0.3 0.1 0.3 0.3 l0 6.04 l5.5 0 l0 -6.04 c0 -0.2 0.1 -0.3 0.3 -0.3 l1.14 0 z M74.166 6 c0.2 0 0.3 0.1 0.3 0.3 l0 0.98 c0 0.2 -0.1 0.3 -0.3 0.3 l-3.16 0 l0 12.12 c0 0.2 -0.1 0.3 -0.3 0.3 l-1.14 0 c-0.2 0 -0.3 -0.1 -0.3 -0.3 l0 -12.12 l-3.18 0 c-0.2 0 -0.3 -0.1 -0.3 -0.3 l0 -0.98 c0 -0.2 0.1 -0.3 0.3 -0.3 l4.62 0 l3.46 0 z M87.53249999999998 11.94 c2.2 0.48 4.44 1.2 4.44 4.06 c0 2.66 -1.38 4.1 -4.02 4.1 l-1.48 0 c-2.52 0 -3.9 -1.36 -4.02 -3.82 c0 -0.22 0.12 -0.34 0.34 -0.34 l1.04 0 c0.22 0 0.36 0.12 0.36 0.34 c0.08 1.58 0.76 2.24 2.28 2.24 l1.48 0 c1.62 0 2.28 -0.68 2.28 -2.52 s-1.24 -2.1 -2.74 -2.46 l-0.88 -0.2 c-2.36 -0.52 -4 -1.26 -4 -3.8 c0 -2.48 1.42 -3.64 4.04 -3.64 l0.98 0 c2.48 0 3.8 1.36 3.92 3.76 c0.02 0.22 -0.12 0.34 -0.34 0.34 l-1.04 0 c-0.2 0 -0.34 -0.12 -0.36 -0.34 c-0.08 -1.54 -0.72 -2.18 -2.18 -2.18 l-0.98 0 c-1.6 0 -2.3 0.38 -2.3 2.06 c0 1.62 0.72 1.84 2.3 2.2 z M102.17899999999997 17.759999999999998 c0.2 0 0.3 0.1 0.3 0.3 l0 1.64 c0 1.46 -0.24 2.44 -0.98 3.32 c-0.1 0.12 -0.2 0.12 -0.32 0.02 l-0.36 -0.3 c-0.14 -0.12 -0.12 -0.22 -0.02 -0.36 c0.32 -0.48 0.5 -1.24 0.5 -2.18 l0.12 -0.2 l-0.86 0 c-0.2 0 -0.3 -0.1 -0.3 -0.3 l0 -1.64 c0 -0.2 0.1 -0.3 0.3 -0.3 l1.62 0 z M133.33199999999997 15.74 c0.22 0 0.34 0.12 0.34 0.34 c-0.12 2.64 -1.48 4.02 -4.02 4.02 l-1.54 0 c-2.64 0 -4.02 -1.5 -4.02 -4.16 l0 -5.88 c0 -2.66 1.38 -4.16 4.02 -4.16 l1.54 0 c2.54 0 3.9 1.38 4.02 4.02 c0 0.22 -0.12 0.34 -0.34 0.34 l-1.04 0 c-0.22 0 -0.36 -0.12 -0.36 -0.34 c-0.08 -1.78 -0.76 -2.44 -2.28 -2.44 l-1.54 0 c-1.62 0 -2.28 0.74 -2.28 2.58 l0 5.88 c0 1.84 0.66 2.58 2.28 2.58 l1.54 0 c1.52 0 2.2 -0.66 2.28 -2.44 c0 -0.22 0.14 -0.34 0.36 -0.34 l1.04 0 z M152.19849999999994 19.66 c0.08 0.22 -0.04 0.34 -0.24 0.34 l-1.12 0 c-0.2 0 -0.3 -0.12 -0.38 -0.34 l-0.76 -2.6 l-5.28 0 l-0.76 2.6 c-0.06 0.22 -0.18 0.34 -0.38 0.34 l-1.12 0 c-0.2 0 -0.3 -0.12 -0.24 -0.34 l4.04 -13.34 c0.06 -0.2 0.2 -0.32 0.38 -0.32 l1.42 0 c0.18 0 0.32 0.12 0.38 0.32 z M144.85849999999996 15.54 l4.4 0 l-2.2 -7.42 z M172.68499999999995 6 c0.2 0 0.3 0.1 0.3 0.3 l0 13.4 c0 0.2 -0.1 0.3 -0.3 0.3 l-1.14 0 c-0.2 0 -0.3 -0.1 -0.3 -0.3 l0 -11.18 l-3.32 11.18 c-0.06 0.2 -0.2 0.3 -0.38 0.3 l-1.06 0 c-0.18 0 -0.32 -0.1 -0.38 -0.3 l-3.32 -11.18 l0 11.18 c0 0.2 -0.1 0.3 -0.3 0.3 l-1.14 0 c-0.2 0 -0.3 -0.1 -0.3 -0.3 l0 -13.4 c0 -0.2 0.1 -0.3 0.3 -0.3 l1.98 0 c0.2 0 0.34 0.1 0.4 0.3 l3.28 10.76 l3.32 -10.76 c0.06 -0.2 0.2 -0.3 0.4 -0.3 l1.96 0 z M190.35149999999996 7.58 l-6.02 0 l0 4.76 l4.6 0 c0.2 0 0.3 0.1 0.3 0.3 l0 0.98 c0 0.2 -0.1 0.3 -0.3 0.3 l-4.6 0 l0 4.5 l6.12 0 c0.2 0 0.3 0.1 0.3 0.3 l0 0.98 c0 0.2 -0.1 0.3 -0.3 0.3 l-7.56 0 c-0.2 0 -0.3 -0.1 -0.3 -0.3 l0 -13.4 c0 -0.2 0.1 -0.3 0.3 -0.3 l7.46 0 c0.2 0 0.3 0.1 0.3 0.3 l0 0.98 c0 0.2 -0.1 0.3 -0.3 0.3 z M209.23799999999997 19.6 c0.1 0.24 -0.02 0.4 -0.28 0.4 l-1.12 0 c-0.18 0 -0.34 -0.08 -0.4 -0.26 l-2.02 -4.56 c-0.16 0.02 -0.32 0.02 -0.5 0.02 l-3.42 0 l0 4.5 c0 0.2 -0.1 0.3 -0.3 0.3 l-1.14 0 c-0.2 0 -0.3 -0.1 -0.3 -0.3 l0 -13.4 c0 -0.2 0.1 -0.3 0.3 -0.3 l1.14 0 l3.72 0 c2.6 0 3.96 1.4 3.96 4 l0 1.2 c0 1.74 -0.62 2.96 -1.82 3.56 z M201.49799999999996 13.620000000000001 l3.42 0 c1.56 0 2.22 -0.64 2.22 -2.42 l0 -1.2 c0 -1.78 -0.66 -2.42 -2.22 -2.42 l-3.42 0 l0 6.04 z M227.90449999999996 19.66 c0.08 0.22 -0.04 0.34 -0.24 0.34 l-1.12 0 c-0.2 0 -0.3 -0.12 -0.38 -0.34 l-0.76 -2.6 l-5.28 0 l-0.76 2.6 c-0.06 0.22 -0.18 0.34 -0.38 0.34 l-1.12 0 c-0.2 0 -0.3 -0.12 -0.24 -0.34 l4.04 -13.34 c0.06 -0.2 0.2 -0.32 0.38 -0.32 l1.42 0 c0.18 0 0.32 0.12 0.38 0.32 z M220.56449999999998 15.54 l4.4 0 l-2.2 -7.42 z M238.07099999999997 17.759999999999998 c0.2 0 0.3 0.1 0.3 0.3 l0 1.64 c0 1.46 -0.24 2.44 -0.98 3.32 c-0.1 0.12 -0.2 0.12 -0.32 0.02 l-0.36 -0.3 c-0.14 -0.12 -0.12 -0.22 -0.02 -0.36 c0.32 -0.48 0.5 -1.24 0.5 -2.18 l0.12 -0.2 l-0.86 0 c-0.2 0 -0.3 -0.1 -0.3 -0.3 l0 -1.64 c0 -0.2 0.1 -0.3 0.3 -0.3 l1.62 0 z M269.804 19.66 c0.08 0.22 -0.04 0.34 -0.24 0.34 l-1.12 0 c-0.2 0 -0.3 -0.12 -0.38 -0.34 l-0.76 -2.6 l-5.28 0 l-0.76 2.6 c-0.06 0.22 -0.18 0.34 -0.38 0.34 l-1.12 0 c-0.2 0 -0.3 -0.12 -0.24 -0.34 l4.04 -13.34 c0.06 -0.2 0.2 -0.32 0.38 -0.32 l1.42 0 c0.18 0 0.32 0.12 0.38 0.32 z M262.46399999999994 15.54 l4.4 0 l-2.2 -7.42 z M287.69049999999993 15.74 c0.22 0 0.34 0.12 0.34 0.34 c-0.12 2.64 -1.48 4.02 -4.02 4.02 l-1.54 0 c-2.64 0 -4.02 -1.5 -4.02 -4.16 l0 -5.88 c0 -2.66 1.38 -4.16 4.02 -4.16 l1.54 0 c2.54 0 3.9 1.38 4.02 4.02 c0 0.22 -0.12 0.34 -0.34 0.34 l-1.04 0 c-0.22 0 -0.36 -0.12 -0.36 -0.34 c-0.08 -1.78 -0.76 -2.44 -2.28 -2.44 l-1.54 0 c-1.62 0 -2.28 0.74 -2.28 2.58 l0 5.88 c0 1.84 0.66 2.58 2.28 2.58 l1.54 0 c1.52 0 2.2 -0.66 2.28 -2.44 c0 -0.22 0.14 -0.34 0.36 -0.34 l1.04 0 z M304.597 6 c0.2 0 0.3 0.1 0.3 0.3 l0 0.98 c0 0.2 -0.1 0.3 -0.3 0.3 l-3.16 0 l0 12.12 c0 0.2 -0.1 0.3 -0.3 0.3 l-1.14 0 c-0.2 0 -0.3 -0.1 -0.3 -0.3 l0 -12.12 l-3.18 0 c-0.2 0 -0.3 -0.1 -0.3 -0.3 l0 -0.98 c0 -0.2 0.1 -0.3 0.3 -0.3 l4.62 0 l3.46 0 z M313.9035 6.300000000000001 c0 -0.2 0.1 -0.3 0.3 -0.3 l1.16 0 c0.2 0 0.3 0.1 0.3 0.3 l0 13.4 c0 0.2 -0.1 0.3 -0.3 0.3 l-1.16 0 c-0.2 0 -0.3 -0.1 -0.3 -0.3 l0 -13.4 z M330.69 5.9 c2.64 0 4.02 1.5 4.02 4.16 l0 5.88 c0 2.66 -1.38 4.16 -4.02 4.16 l-1.7 0 c-2.64 0 -4.02 -1.5 -4.02 -4.16 l0 -5.88 c0 -2.66 1.38 -4.16 4.02 -4.16 l1.7 0 z M332.97 15.940000000000001 l0 -5.88 c0 -1.84 -0.68 -2.58 -2.28 -2.58 l-1.7 0 c-1.62 0 -2.28 0.74 -2.28 2.58 l0 5.88 c0 1.84 0.66 2.58 2.28 2.58 l1.7 0 c1.6 0 2.28 -0.74 2.28 -2.58 z M353.0765 6 c0.2 0 0.3 0.1 0.3 0.3 l0 13.4 c0 0.2 -0.1 0.3 -0.3 0.3 l-1.76 0 c-0.16 0 -0.28 -0.06 -0.36 -0.22 l-5.2 -11.24 l0 11.16 c0 0.2 -0.1 0.3 -0.3 0.3 l-1.14 0 c-0.2 0 -0.3 -0.1 -0.3 -0.3 l0 -13.4 c0 -0.2 0.1 -0.3 0.3 -0.3 l1.76 0 c0.16 0 0.28 0.06 0.36 0.22 l5.2 11.22 l0 -11.14 c0 -0.2 0.1 -0.3 0.3 -0.3 l1.14 0 z"
        ></path>
      </g>
    </svg>